<svg width="16" height="18" viewBox="0 0 16 18" fill="none" xmlns="http://www.w3.org/2000/svg">
<g id="vuesax/linear/mobile">
<g id="mobile">
<path id="Vector" d="M14.6615 4.83854V13.1719C14.6615 16.5052 13.8281 17.3385 10.4948 17.3385H5.49479C2.16146 17.3385 1.32812 16.5052 1.32812 13.1719V4.83854C1.32812 1.50521 2.16146 0.671875 5.49479 0.671875H10.4948C13.8281 0.671875 14.6615 1.50521 14.6615 4.83854Z" stroke="white" stroke-opacity="0.8" stroke-width="1.2" stroke-linecap="round" stroke-linejoin="round"/>
<path id="Vector_2" d="M9.66146 3.58594H6.32812" stroke="white" stroke-opacity="0.8" stroke-width="1.2" stroke-linecap="round" stroke-linejoin="round"/>
<path id="Vector_3" d="M7.99479 14.9193C8.70816 14.9193 9.28646 14.341 9.28646 13.6276C9.28646 12.9142 8.70816 12.3359 7.99479 12.3359C7.28142 12.3359 6.70312 12.9142 6.70312 13.6276C6.70312 14.341 7.28142 14.9193 7.99479 14.9193Z" stroke="white" stroke-opacity="0.8" stroke-width="1.2" stroke-linecap="round" stroke-linejoin="round"/>
</g>
</g>
</svg>
