<svg width="20" height="20" viewBox="0 0 20 20" fill="none" xmlns="http://www.w3.org/2000/svg">
<g id="svgexport-16 (1) 1">
<g id="Group">
<g id="19">
<path id="Vector" d="M10.0022 15.8358C9.83672 15.8368 9.67466 15.7884 9.53673 15.6969C9.3988 15.6054 9.29124 15.4749 9.22777 15.322C9.16429 15.1692 9.14778 15.0009 9.18034 14.8386C9.2129 14.6763 9.29305 14.5274 9.41058 14.4108L13.8272 10.0025L9.41058 5.59413C9.27405 5.43471 9.20272 5.22965 9.21082 5.01992C9.21892 4.81019 9.30586 4.61124 9.45427 4.46283C9.60269 4.31442 9.80163 4.22747 10.0114 4.21937C10.2211 4.21127 10.4262 4.28261 10.5856 4.41913L15.5856 9.41913C15.7408 9.57527 15.8279 9.78648 15.8279 10.0066C15.8279 10.2268 15.7408 10.438 15.5856 10.5941L10.5856 15.5941C10.4304 15.7481 10.2209 15.8349 10.0022 15.8358Z" fill="white"/>
<path id="Vector_2" d="M5.00224 15.8341C4.83672 15.8351 4.67466 15.7867 4.53673 15.6952C4.3988 15.6037 4.29124 15.4732 4.22777 15.3204C4.16429 15.1675 4.14778 14.9992 4.18034 14.8369C4.2129 14.6746 4.29305 14.5257 4.41058 14.4091L8.82724 10.0008L4.41058 5.59247C4.25366 5.43555 4.1655 5.22272 4.1655 5.00081C4.1655 4.77889 4.25366 4.56606 4.41058 4.40914C4.5675 4.25222 4.78032 4.16406 5.00224 4.16406C5.22416 4.16406 5.43699 4.25222 5.59391 4.40914L10.5939 9.40914C10.7491 9.56527 10.8362 9.77648 10.8362 9.99664C10.8362 10.2168 10.7491 10.428 10.5939 10.5841L5.59391 15.5841C5.51673 15.6629 5.42469 15.7255 5.32313 15.7684C5.22157 15.8113 5.1125 15.8337 5.00224 15.8341Z" fill="white"/>
</g>
</g>
</g>
</svg>
