<svg width="40" height="40" viewBox="0 0 40 40" fill="none" xmlns="http://www.w3.org/2000/svg">
<g id="OBJECTS">
<path id="Vector" d="M20.409 15.8819C20.409 16.118 20.2293 16.2976 20.0046 16.2976C19.78 16.2976 19.5889 16.1181 19.5889 15.8819V15.0282V15.0169V13.3768V13.3656V0.795125C19.5889 0.570625 19.7799 0.390625 20.0046 0.390625C20.2293 0.390625 20.409 0.570525 20.409 0.795125V13.3656V13.3768V15.0169V15.0282V15.8819ZM23.6779 14.4666C23.5656 14.6574 23.3071 14.7249 23.1163 14.6125C22.9139 14.5003 22.8465 14.2532 22.959 14.0509L29.2499 3.16553C29.3622 2.97453 29.6092 2.90703 29.8115 3.01943C30.0025 3.13183 30.07 3.37893 29.9576 3.56993L23.6779 14.4666ZM22.139 15.4887C22.2513 15.2979 22.4984 15.2304 22.6895 15.3428C22.8915 15.4551 22.9591 15.7023 22.8466 15.9044L22.4197 16.6459C22.2962 16.8369 22.049 16.9042 21.8581 16.792C21.6557 16.6795 21.5883 16.4324 21.7008 16.2302L22.139 15.4887ZM25.5427 23.6782C25.3517 23.5657 25.2844 23.3074 25.3966 23.1164C25.509 22.9254 25.7561 22.8581 25.9471 22.9703L36.8325 29.2499C37.0347 29.3623 37.1021 29.6094 36.9898 29.8117C36.8773 30.0027 36.6303 30.07 36.428 29.9578L25.5427 23.6782ZM24.5092 22.1391C24.7114 22.2516 24.7787 22.4986 24.6665 22.7009C24.5541 22.8919 24.2957 22.9592 24.1047 22.847L23.3634 22.4201C23.1611 22.3076 23.0936 22.0494 23.206 21.8583C23.3295 21.6561 23.5767 21.5887 23.7678 21.701L24.5092 22.1391ZM16.3311 25.5428C16.4435 25.352 16.6906 25.2845 16.8929 25.3969C17.0839 25.5091 17.1512 25.7564 17.0388 25.9472L10.7594 36.8438C10.6469 37.0348 10.3886 37.1023 10.1976 36.9899C9.99532 36.8774 9.92802 36.6304 10.0402 36.4281L16.3311 25.5428ZM17.87 24.5208C17.7578 24.7116 17.4995 24.7791 17.3085 24.6667C17.1175 24.5544 17.0502 24.2959 17.1624 24.1051L17.5892 23.3636C17.7017 23.1613 17.9488 23.094 18.151 23.2175C18.342 23.3299 18.4093 23.577 18.2969 23.768L17.87 24.5208ZM14.4551 16.3312C14.6573 16.4436 14.7248 16.6907 14.6124 16.893C14.5 17.084 14.2529 17.1513 14.0507 17.0391L3.16523 10.7594C2.97443 10.6472 2.90693 10.3887 3.01933 10.1977C3.13153 9.99542 3.37862 9.92813 3.56962 10.0403L14.4551 16.3312ZM15.4886 17.8703C15.2976 17.7579 15.2303 17.5108 15.3425 17.3085C15.4549 17.1175 15.702 17.0502 15.9042 17.1624L16.6457 17.5893C16.8367 17.7017 16.904 17.9601 16.7916 18.1511C16.6793 18.3421 16.4322 18.4094 16.23 18.2972L15.4886 17.8703ZM25.9472 17.0391C25.7562 17.1513 25.5091 17.084 25.3967 16.893C25.2844 16.6908 25.3518 16.4436 25.5428 16.3312L36.4282 10.0403C36.6304 9.92813 36.8775 9.99542 36.99 10.1977C37.1022 10.3887 37.0349 10.6472 36.8327 10.7594L25.9472 17.0391ZM24.1048 17.1625C24.2958 17.0503 24.5541 17.1176 24.6666 17.3086C24.7788 17.5109 24.7115 17.758 24.5093 17.8704L23.768 18.2973C23.577 18.4096 23.3185 18.3422 23.2062 18.1512C23.0938 17.949 23.1613 17.7019 23.3636 17.5894L24.1048 17.1625ZM22.9591 25.9473C22.8467 25.7564 22.914 25.5092 23.1164 25.397C23.3072 25.2845 23.5657 25.3521 23.678 25.5429L29.9576 36.4283C30.07 36.6305 30.0025 36.8776 29.8115 36.9901C29.6093 37.1026 29.3622 37.035 29.2499 36.844L22.9591 25.9473ZM22.8466 24.1051C22.959 24.3071 22.8915 24.5544 22.6895 24.6667C22.4984 24.7791 22.2512 24.7116 22.139 24.5096L21.7009 23.7681C21.5885 23.5771 21.6558 23.33 21.8582 23.2176C22.049 23.1053 22.3075 23.1726 22.4198 23.3637L22.8466 24.1051ZM14.0507 22.9704C14.2529 22.8582 14.5 22.9255 14.6124 23.1165C14.7248 23.3075 14.6573 23.5658 14.4551 23.6783L3.56972 29.9579C3.37872 30.0701 3.13162 30.0028 3.01943 29.8118C2.90703 29.6095 2.97452 29.3624 3.16532 29.25L14.0507 22.9704ZM15.893 22.8469C15.702 22.9591 15.4549 22.8918 15.3425 22.6896C15.2303 22.4986 15.2976 22.2515 15.4886 22.1391L16.2301 21.701C16.4323 21.5887 16.6794 21.6561 16.7917 21.8583C16.9041 22.0493 16.8368 22.3076 16.6458 22.4201L15.893 22.8469ZM17.0388 14.0509C17.1512 14.2531 17.0839 14.5003 16.8929 14.6125C16.6907 14.7249 16.4435 14.6574 16.3311 14.4666L10.0403 3.56993C9.92812 3.37893 9.99543 3.13183 10.1977 3.01943C10.3887 2.90703 10.647 2.97453 10.7595 3.16553L17.0388 14.0509ZM17.1624 15.9043C17.0501 15.7023 17.1175 15.455 17.3085 15.3427C17.5107 15.2303 17.7578 15.2978 17.87 15.4886L18.2969 16.2301C18.4093 16.4323 18.342 16.6794 18.151 16.7919C17.9488 16.9041 17.7017 16.8368 17.5892 16.6458L17.1624 15.9043ZM34.1365 24.2173C33.9231 24.1612 33.7882 23.9366 33.8557 23.7119C33.9118 23.4985 34.1365 23.3636 34.3499 23.4197L38.6637 24.5769C38.8771 24.633 39.0118 24.8577 38.9444 25.0824C38.8883 25.2958 38.6637 25.4307 38.4502 25.3746L34.1365 24.2173ZM32.8447 23.0152C33.0693 23.0828 33.193 23.3074 33.1367 23.5209C33.0806 23.7455 32.8559 23.869 32.6313 23.8129L31.9122 23.6219C31.6988 23.5658 31.5641 23.3411 31.6314 23.1165C31.6875 22.9031 31.9122 22.7682 32.1256 22.8245L32.8447 23.0152ZM23.4196 34.35C23.3635 34.1368 23.4982 33.9119 23.7116 33.8558C23.9363 33.7885 24.1609 33.9231 24.2173 34.1368L25.3743 38.4504C25.4304 38.6638 25.2957 38.8885 25.0823 38.9446C24.8576 39.0121 24.6329 38.8773 24.5766 38.6638L23.4196 34.35ZM23.8128 32.6425C23.8689 32.8559 23.7453 33.0806 23.5206 33.1369C23.3071 33.193 23.0825 33.0694 23.0151 32.8447L22.8241 32.1258C22.768 31.9124 22.9027 31.6877 23.1163 31.6316C23.3408 31.5753 23.5656 31.6989 23.6217 31.9236L23.8128 32.6425ZM9.28772 30.1374C9.44492 29.9803 9.70342 29.9803 9.86052 30.1374C10.0291 30.3059 10.0291 30.5643 9.86052 30.7216L6.71513 33.8782C6.54663 34.0355 6.28832 34.0355 6.13092 33.8782C5.97382 33.7097 5.97382 33.4513 6.13092 33.294L9.28772 30.1374ZM10.9615 29.6208C10.8042 29.7781 10.5458 29.7781 10.3885 29.6208C10.2312 29.4634 10.22 29.2051 10.3885 29.0366L10.9052 28.52C11.0737 28.3514 11.3321 28.3514 11.4894 28.5087C11.6467 28.6771 11.6467 28.9356 11.4894 29.0927L10.9615 29.6208ZM5.86142 15.7921C6.08612 15.8482 6.20972 16.0729 6.15362 16.2863C6.09732 16.511 5.87262 16.6459 5.64802 16.5785L1.34552 15.4326C1.12082 15.3653 0.997225 15.1406 1.05332 14.9272C1.10962 14.7025 1.33432 14.5788 1.55892 14.635L5.86142 15.7921ZM7.15322 16.9829C6.93982 16.9266 6.80512 16.7019 6.86122 16.4885C6.91732 16.2638 7.15322 16.1292 7.36662 16.1965L8.08572 16.3875C8.29912 16.4436 8.43402 16.6683 8.37772 16.8929C8.32162 17.1063 8.09692 17.2412 7.87232 17.1737L7.15322 16.9829ZM16.5782 5.64822C16.6346 5.87292 16.5109 6.09752 16.2862 6.15363C16.0728 6.20983 15.8481 6.08633 15.792 5.86163L14.6348 1.55902C14.5786 1.33442 14.7021 1.10972 14.9268 1.05362C15.1404 0.997425 15.3649 1.13212 15.4324 1.34562L16.5782 5.64822ZM16.1963 7.36693C16.1289 7.15343 16.2638 6.92882 16.4772 6.86142C16.7019 6.80513 16.9266 6.94002 16.9826 7.15342L17.1736 7.87232C17.2299 8.09702 17.1063 8.32162 16.8816 8.37792C16.6682 8.43402 16.4435 8.31042 16.3872 8.08572L16.1963 7.36693ZM9.86052 9.28782C10.0291 9.44512 10.0291 9.70353 9.86052 9.86083C9.70342 10.0292 9.44492 10.0292 9.28772 9.86083L6.13092 6.71543C5.97382 6.55813 5.97382 6.28853 6.13092 6.13123C6.28832 5.97393 6.54663 5.97393 6.71513 6.13123L9.86052 9.28782ZM10.3886 10.9729C10.2201 10.8044 10.2201 10.546 10.3886 10.3887C10.5459 10.2316 10.8043 10.2316 10.9616 10.3887L11.4895 10.9168C11.6468 11.0741 11.6468 11.3324 11.4895 11.4898C11.3322 11.6469 11.0738 11.6469 10.9165 11.4898L10.3886 10.9729ZM5.64792 23.4197C5.87262 23.3636 6.09722 23.4985 6.15352 23.7119C6.20962 23.9366 6.08602 24.1612 5.86132 24.2173L1.55892 25.3745C1.33432 25.4306 1.10962 25.2957 1.05332 25.0823C0.997225 24.8576 1.12082 24.6329 1.34552 24.5768L5.64792 23.4197ZM7.36662 23.8129C7.15322 23.869 6.91732 23.7455 6.86122 23.5209C6.80512 23.3074 6.93982 23.0828 7.15322 23.0152L7.87232 22.8244C8.09702 22.7681 8.32162 22.903 8.37772 23.1164C8.43402 23.3411 8.29912 23.5657 8.08572 23.6218L7.36662 23.8129ZM15.792 34.1368C15.8481 33.9232 16.0728 33.7885 16.2862 33.8558C16.5109 33.9119 16.6346 34.1368 16.5782 34.35L15.4325 38.6638C15.365 38.8772 15.1405 39.0121 14.9269 38.9446C14.7022 38.8885 14.5787 38.6638 14.6349 38.4504L15.792 34.1368ZM16.9826 32.8448C16.9265 33.0695 16.7018 33.1931 16.4772 33.137C16.2638 33.0807 16.1289 32.856 16.1963 32.6426L16.3873 31.9237C16.4436 31.699 16.6683 31.5754 16.8817 31.6317C17.1064 31.6878 17.23 31.9125 17.1737 32.1259L16.9826 32.8448ZM30.1373 30.7216C29.98 30.5643 29.98 30.3059 30.1373 30.1374C30.2946 29.9803 30.5642 29.9803 30.7215 30.1374L33.8669 33.294C34.0354 33.4513 34.0354 33.7097 33.8669 33.8782C33.7096 34.0355 33.4512 34.0355 33.2939 33.8782L30.1373 30.7216ZM29.6205 29.0365C29.7778 29.1939 29.7778 29.4522 29.6205 29.6207C29.4633 29.778 29.2048 29.778 29.0365 29.6207L28.5085 29.0926C28.3511 28.9354 28.3511 28.6769 28.5085 28.5198C28.677 28.3512 28.9354 28.3512 29.0927 28.5085L29.6205 29.0365ZM30.7215 9.86083C30.5642 10.0292 30.2946 10.0292 30.1373 9.86083C29.98 9.70353 29.98 9.44512 30.1373 9.28782L33.2939 6.13123C33.4512 5.97393 33.7096 5.97393 33.8669 6.13123C34.0354 6.28853 34.0354 6.55813 33.8669 6.71543L30.7215 9.86083ZM29.0364 10.3887C29.1936 10.2316 29.4521 10.2316 29.6204 10.3887C29.7777 10.546 29.7777 10.8044 29.6204 10.9617L29.0925 11.4898C28.9352 11.6469 28.6768 11.6469 28.5083 11.4898C28.3509 11.3324 28.3509 11.0741 28.5083 10.9168L29.0364 10.3887ZM34.3499 16.5785C34.1365 16.6459 33.9118 16.511 33.8557 16.2863C33.7882 16.0729 33.923 15.8482 34.1365 15.7921L38.4503 14.6349C38.6638 14.5787 38.8884 14.7024 38.9445 14.9271C39.0119 15.1405 38.8772 15.3652 38.6638 15.4325L34.3499 16.5785ZM32.6312 16.1965C32.8559 16.1292 33.0806 16.2638 33.1366 16.4773C33.1929 16.702 33.0693 16.9267 32.8446 16.9829L32.1255 17.1737C31.9121 17.2412 31.6874 17.1064 31.6313 16.8929C31.564 16.6682 31.6986 16.4435 31.9121 16.3875L32.6312 16.1965ZM24.2173 5.86163C24.1609 6.08633 23.9363 6.20983 23.7116 6.15363C23.4982 6.09752 23.3635 5.87292 23.4196 5.64822L24.5765 1.34562C24.6328 1.13212 24.8575 0.997425 25.0822 1.05362C25.2956 1.10972 25.4303 1.33442 25.3742 1.55902L24.2173 5.86163ZM23.0151 7.15342C23.0713 6.94002 23.3071 6.80513 23.5206 6.86142C23.734 6.92882 23.8689 7.15343 23.8128 7.36693L23.6218 8.08583C23.5657 8.31053 23.3408 8.43412 23.1164 8.37803C22.9028 8.32173 22.7681 8.09703 22.8242 7.87243L23.0151 7.15342ZM15.8818 19.589C16.1065 19.589 16.2974 19.78 16.2974 20.0047C16.2974 20.2294 16.1064 20.4091 15.8818 20.4091H0.795025C0.570325 20.4091 0.390625 20.2294 0.390625 20.0047C0.390625 19.78 0.570425 19.589 0.795025 19.589H15.8818ZM19.5889 24.1163C19.5889 23.8916 19.7799 23.7119 20.0046 23.7119C20.2293 23.7119 20.409 23.8916 20.409 24.1163V39.2031C20.409 39.439 20.2293 39.6188 20.0046 39.6188C19.78 39.6188 19.5889 39.4391 19.5889 39.2031V24.1163ZM24.116 20.4091C23.8914 20.4091 23.7116 20.2294 23.7116 20.0047C23.7116 19.78 23.8914 19.589 24.116 19.589H39.2028C39.4387 19.589 39.6184 19.78 39.6184 20.0047C39.6184 20.2294 39.4387 20.4091 39.2028 20.4091H24.116Z" fill="white"/>
<g id="Group">
<path id="Vector_2" d="M32.4074 11.8946C32.1385 21.798 27.3381 30.5708 20.0045 36.2115C12.6709 30.5708 7.87046 21.798 7.60156 11.8946C11.412 10.2782 15.6044 9.38281 20.0045 9.38281C24.4046 9.38291 28.597 10.2782 32.4074 11.8946Z" fill="#1B234C"/>
<g id="Group_2">
<path id="Vector_3" d="M20.0085 34.5491C16.8456 31.9421 14.1878 28.6644 12.3073 25.0474C10.311 21.2077 9.178 17.0703 8.9375 12.7445C12.4619 11.3691 16.1848 10.6719 20.0085 10.6719C23.8322 10.6719 27.5551 11.3691 31.0796 12.7445C30.8391 17.0702 29.7061 21.2076 27.7098 25.0474C25.8292 28.6645 23.1714 31.9422 20.0085 34.5491Z" fill="#E6873C"/>
</g>
<path id="Vector_4" d="M20.0002 33.591C17.1215 31.115 14.6936 28.058 12.9558 24.7156C11.0921 21.1307 9.99893 17.2767 9.70312 13.2521C12.9912 12.0374 16.4526 11.4219 20.0002 11.4219C23.5477 11.4219 27.0092 12.0374 30.2973 13.2521C30.0016 17.2766 28.9084 21.1307 27.0446 24.7156C25.3068 28.0581 22.8789 31.1151 20.0002 33.591Z" fill="#1B234C"/>
</g>
<path id="Vector_5" d="M26.7237 23.7266C26.6182 23.9431 26.5096 24.1585 26.398 24.3731C24.8057 27.4355 22.6051 30.2691 20.0103 32.6041C17.4155 30.269 15.2149 27.4355 13.6226 24.3731C13.5109 24.1584 13.4024 23.9431 13.2969 23.7266H26.7237Z" fill="#F2B844"/>
<g id="Group_3">
<g id="Group_4">
<path id="Vector_6" d="M17.7077 29.0043L17.2897 29.2241L17.3695 28.7586L17.0312 28.4289L17.4987 28.361L17.7077 27.9375L17.9167 28.361L18.3841 28.4289L18.0459 28.7586L18.1257 29.2241L17.7077 29.0043Z" fill="#1B234C"/>
<path id="Vector_7" d="M22.2858 29.0043L21.8678 29.2241L21.9476 28.7586L21.6094 28.4289L22.0768 28.361L22.2858 27.9375L22.4948 28.361L22.9622 28.4289L22.624 28.7586L22.7038 29.2241L22.2858 29.0043Z" fill="#1B234C"/>
</g>
<path id="Vector_8" d="M20.0045 30.5043L19.5865 30.7241L19.6663 30.2586L19.3281 29.929L19.7955 29.8611L20.0045 29.4375L20.2135 29.8611L20.6809 29.929L20.3427 30.2586L20.4225 30.7241L20.0045 30.5043Z" fill="#1B234C"/>
</g>
<g id="Group_5">
<g id="Group_6">
<g id="Group_7">
<path id="Vector_9" d="M21.322 21.9613C25.7078 21.2327 28.6725 17.0866 27.9438 12.7008C27.2151 8.31508 23.0691 5.35041 18.6833 6.07908C14.2976 6.80774 11.3329 10.9538 12.0615 15.3396C12.7902 19.7253 16.9363 22.69 21.322 21.9613Z" fill="white"/>
</g>
<g id="Group_8">
<path id="Vector_10" d="M28.1681 15.6226C27.2873 20.1255 22.9073 23.0723 18.4044 22.1915C13.9014 21.3107 10.9546 16.9307 11.8354 12.4278C12.7162 7.92479 17.0963 4.97799 21.5992 5.85879C26.102 6.73969 29.0489 11.1197 28.1681 15.6226ZM12.3678 12.532C11.5444 16.7413 14.2992 20.8357 18.5085 21.659C22.7178 22.4823 26.8122 19.7277 27.6355 15.5184C28.4589 11.3091 25.7042 7.21469 21.4949 6.39129C17.2856 5.56789 13.1912 8.32269 12.3678 12.532Z" fill="#1B234C"/>
</g>
</g>
<g id="Group_9" opacity="0.3">
<path id="Vector_11" fill-rule="evenodd" clip-rule="evenodd" d="M24.7384 14.9473C24.0949 18.2373 21.7093 20.7437 18.7266 21.6969C22.8639 22.383 26.8222 19.6562 27.6326 15.5133C28.443 11.3705 25.8038 7.35309 21.7128 6.42969C24.1166 8.43669 25.382 11.6573 24.7384 14.9473Z" fill="#676767"/>
</g>
<path id="Vector_12" fill-rule="evenodd" clip-rule="evenodd" d="M17.2637 6.45776C17.1406 6.66236 17.0078 6.83426 16.8646 6.99676C16.8106 7.05796 16.7349 7.11056 16.6587 7.13996C15.6393 7.53296 14.8312 8.21136 14.0961 8.99856C13.8382 9.27466 13.5352 9.50846 13.2569 9.76596C13.1879 9.82986 13.1136 9.89356 13.0526 9.96486C12.6085 10.7246 12.282 11.5702 12.1036 12.4827C12.004 12.9921 11.9554 13.4995 11.9531 14C11.9849 14.2365 12.0725 14.4563 12.2649 14.6536C12.3282 14.7185 12.3335 14.8479 12.3491 14.95C12.5096 16.0066 12.8122 17.019 13.3878 17.9238C13.6246 18.2961 13.756 18.6851 13.8474 19.1034C13.8643 19.1809 13.8992 19.2615 13.9457 19.3288C14.8651 20.3809 16.0625 21.2013 17.454 21.664C17.5208 21.6656 17.585 21.6514 17.6537 21.6171C17.9098 21.4892 18.1681 21.4281 18.468 21.4627C19.4267 21.5735 20.3839 21.5328 21.3242 21.3037C21.5868 21.2396 21.8148 21.2396 22.0596 21.3652C22.2383 21.4569 22.4415 21.5077 22.6393 21.5527C22.6832 21.5627 22.7321 21.57 22.7808 21.5724C24.2144 21.0411 25.4777 20.1098 26.4096 18.8878C26.3199 18.5389 26.2319 18.2116 26.157 17.8819C26.1412 17.8125 26.1654 17.7242 26.1956 17.6554C26.6586 16.6026 26.8946 15.4956 26.9995 14.3555C27.0071 14.2727 27.0443 14.1652 27.1054 14.1192C27.4623 13.8507 27.7563 13.5288 27.9924 13.1514C27.9957 13.1461 28.0007 13.1418 28.0061 13.1377C27.8448 11.683 27.2883 10.3182 26.428 9.17776C25.9642 9.06526 25.541 8.96536 25.1213 8.85536C25.051 8.83696 24.9917 8.76896 24.9322 8.71806C24.2931 8.17166 23.6311 7.65666 22.8944 7.24596C22.6886 7.13116 22.4695 7.03966 22.2664 6.92056C22.1834 6.87186 22.1081 6.78816 22.0621 6.70276C21.9779 6.54656 21.9124 6.37976 21.829 6.18806C21.7364 6.16646 21.6432 6.14596 21.5491 6.12756C20.0621 5.83696 18.5911 5.97586 17.2637 6.45776ZM13.9858 12.316C13.7877 12.2574 13.7282 12.1557 13.7411 11.9496C13.7844 11.255 13.8042 10.5588 13.8395 9.86346C13.8439 9.77626 13.8644 9.67236 13.9166 9.60776C14.5607 8.80856 15.2886 8.10346 16.2064 7.61826C16.2238 7.60906 16.2416 7.60046 16.2587 7.59056C16.5757 7.40496 16.8842 7.32116 17.2616 7.47426C17.7287 7.66376 18.2237 7.78496 18.7082 7.93056C18.8061 7.95996 18.8433 8.00056 18.8348 8.11026C18.7693 8.96166 18.7096 9.81336 18.6517 10.6653C18.6419 10.8097 18.6046 10.9242 18.4805 11.0199C17.7152 11.61 16.9575 12.2099 16.1916 12.7991C16.1046 12.8661 15.9819 12.8868 15.9175 12.9123C15.2289 12.6986 14.6093 12.5005 13.9858 12.316ZM13.9354 18.2499C13.8797 18.2343 13.8256 18.1779 13.7909 18.1268C13.097 17.105 12.7265 15.9649 12.5661 14.7496C12.5579 14.6876 12.5659 14.6129 12.594 14.5583C12.9326 13.899 13.2765 13.2423 13.6121 12.5982C14.3452 12.8126 15.0515 13.0159 15.7544 13.2302C15.8216 13.2506 15.8948 13.3291 15.9202 13.3973C16.2753 14.3518 16.6249 15.3084 16.9675 16.2674C16.9971 16.3502 16.9948 16.4667 16.9597 16.5467C16.6462 17.2622 16.3239 17.9739 15.9966 18.6832C15.9766 18.7266 15.884 18.7745 15.8398 18.7631C15.2031 18.5989 14.5685 18.4269 13.9354 18.2499ZM22.6716 18.942C22.3471 19.5928 22.0314 20.2481 21.6998 20.8953C21.6631 20.967 21.5503 21.0188 21.4627 21.0423C20.5067 21.2982 19.5333 21.3288 18.5526 21.2527C18.4609 21.2455 18.3692 21.2386 18.233 21.2281C18.2026 21.2041 18.1336 21.1654 18.0854 21.109C17.5134 20.4399 16.9419 19.7704 16.3794 19.0934C16.3303 19.0343 16.3076 18.9051 16.3373 18.8362C16.6329 18.1495 16.9383 17.4669 17.2531 16.7888C17.2852 16.7197 17.3947 16.6474 17.4712 16.644C18.4869 16.5985 19.5031 16.5613 20.5195 16.5351C20.6136 16.5327 20.735 16.5966 20.8013 16.6687C21.4104 17.3301 22.0082 18.0018 22.6146 18.6657C22.696 18.755 22.7286 18.8275 22.6716 18.942ZM24.8794 12.0927C25.4807 12.7545 26.0766 13.4213 26.6658 14.0939C26.7218 14.1577 26.7562 14.2718 26.7469 14.3565C26.6933 14.8397 26.6236 15.3211 26.5483 15.886C26.3958 16.3407 26.216 16.8687 26.0424 17.3989C25.9894 17.5609 25.8948 17.6784 25.7335 17.7308C24.9725 17.9779 24.2067 18.2109 23.4505 18.4719C23.1361 18.5803 22.9165 18.5247 22.6988 18.271C22.1555 17.6378 21.5894 17.0241 21.04 16.3961C20.995 16.3447 20.9782 16.2349 20.9975 16.1662C21.2784 15.1661 21.5653 14.1677 21.86 13.1717C21.8814 13.0995 21.9633 13.0188 22.0356 12.992C22.9102 12.6677 23.7876 12.3506 24.6673 12.0406C24.7263 12.0197 24.8377 12.0468 24.8794 12.0927ZM22.2951 7.20606C23.2163 7.64116 24.0196 8.25286 24.7879 8.91296C24.8386 8.95646 24.8779 9.04746 24.8745 9.11396C24.8346 9.91396 24.7883 10.7137 24.7338 11.5127C24.7297 11.5731 24.6628 11.6602 24.6054 11.6814C23.682 12.0227 22.7561 12.3572 21.8279 12.6853C21.7661 12.7071 21.6669 12.6874 21.61 12.6495C20.7744 12.0934 19.9415 11.5332 19.1138 10.9655C19.0525 10.9235 18.9992 10.8152 19.0032 10.7411C19.0494 9.88236 19.1074 9.02426 19.1623 8.16606C19.1691 7.99176 19.2728 7.94056 19.4246 7.89746C20.2581 7.66146 21.0869 7.40906 21.9212 7.17626C22.0355 7.14436 22.1882 7.15556 22.2951 7.20606Z" fill="#1B234C"/>
</g>
<g id="Group_10">
<path id="Vector_13" fill-rule="evenodd" clip-rule="evenodd" d="M31.6997 20.2446C32.4734 20.6176 33.1924 21.0349 33.9153 21.5079L35.2558 22.3849L32.4854 23.4092L33.7385 27.3598L31.9565 26.3604C30.4638 25.5233 28.9807 24.8357 27.3306 24.3702C22.0275 22.8735 17.9865 22.8735 12.6833 24.3702C11.0331 24.8358 9.55011 25.5234 8.05721 26.3604L6.27521 27.3598L7.52841 23.4092L4.75781 22.3849L6.09851 21.5079C6.82131 21.0349 7.54051 20.6176 8.31411 20.2446L7.87041 19.1892L8.66261 18.8974C12.2348 17.5809 16.2098 17 20.0068 17C23.804 17 27.7789 17.5809 31.3513 18.8974L32.1435 19.1892L31.6997 20.2446Z" fill="#1B234C"/>
<path id="Vector_14" fill-rule="evenodd" clip-rule="evenodd" d="M33.4723 22.1807C32.709 21.6816 32.0159 21.2769 31.1207 20.8615L29.8135 22.6435L31.0709 19.6523C27.9902 18.5173 24.162 17.8333 20.0059 17.8047C15.8496 17.8333 12.0212 18.5172 8.94056 19.6523L10.198 22.6435L8.89076 20.8615C7.99566 21.277 7.30236 21.6816 6.53906 22.1807L8.52946 22.9169L7.66106 25.6538C10.8749 23.8515 12.8603 23.3745 16.0006 22.844C13.508 22.6008 11.1058 23.1122 10.5875 23.2327C13.294 22.3046 16.5271 21.7545 20.0058 21.7271C23.4844 21.7545 26.7173 22.3046 29.4241 23.2327C28.9062 23.1125 26.5036 22.6008 24.0109 22.844C27.1512 23.3745 29.1366 23.8514 32.3501 25.6538L31.482 22.9169L33.4723 22.1807Z" fill="white"/>
<path id="Vector_15" d="M8.92776 22.644L6.53906 22.1797L8.52946 22.9159L7.66106 25.6528C10.8749 23.8505 12.8603 23.3735 16.0006 22.843C11.8144 22.8959 8.22896 24.9181 8.22896 24.9181L8.92776 22.644Z" fill="#D4D5D7"/>
<path id="Vector_16" d="M33.4769 22.1797L31.0881 22.644L31.7871 24.9181C31.7871 24.9181 28.2018 22.8959 24.0156 22.843C27.1559 23.3735 29.1413 23.8504 32.3548 25.6528L31.4867 22.9159L33.4769 22.1797Z" fill="#D4D5D7"/>
</g>
<g id="Group_11">
<path id="Vector_17" d="M28.1035 7.98511L28.3122 8.28021L28.4195 7.93511L28.7646 7.82781L28.4696 7.61911L28.4742 7.25781L28.1845 7.47391L27.8423 7.35781L27.9583 7.70011L27.7422 7.98981L28.1035 7.98511Z" fill="white"/>
<path id="Vector_18" d="M25.4575 6.26369L25.8054 6.16569L26.0833 6.39669L26.0976 6.03559L26.4032 5.84259L26.0642 5.71739L25.9751 5.36719L25.7513 5.65089L25.3906 5.62739L25.5913 5.92799L25.4575 6.26369Z" fill="white"/>
<path id="Vector_19" d="M22.7918 5.17969L23.1024 4.99499L23.4307 5.14619L23.351 4.79369L23.5963 4.52819L23.2364 4.49499L23.0597 4.17969L22.9169 4.51179L22.5625 4.58239L22.8341 4.82079L22.7918 5.17969Z" fill="white"/>
<path id="Vector_20" d="M19.9385 4.83207L20.1908 4.57328L20.547 4.63438L20.3788 4.31447L20.547 3.99457L20.1908 4.05567L19.9385 3.79688L19.8866 4.15447L19.5625 4.31447L19.8866 4.47437L19.9385 4.83207Z" fill="white"/>
<path id="Vector_21" d="M16.9561 4.89446L17.0988 5.22656L17.2755 4.91126L17.6354 4.87806L17.3902 4.61256L17.4698 4.26006L17.1416 4.41126L16.8309 4.22656L16.8733 4.58546L16.6016 4.82386L16.9561 4.89446Z" fill="white"/>
<path id="Vector_22" d="M14.2279 6.06611L14.4517 6.34991L14.5408 5.99961L14.8799 5.87441L14.5743 5.68151L14.56 5.32031L14.282 5.55141L13.9341 5.45341L14.068 5.78911L13.8672 6.08971L14.2279 6.06611Z" fill="white"/>
<path id="Vector_23" d="M11.561 8.01615L11.9032 7.90015L12.1929 8.11625L12.1883 7.75485L12.4834 7.54615L12.1382 7.43895L12.0309 7.09375L11.8223 7.38885L11.4609 7.38425L11.677 7.67395L11.561 8.01615Z" fill="white"/>
</g>
</g>
</svg>
